<svg xmlns="http://www.w3.org/2000/svg" width="120" height="100" viewBox="0 0 120 100" fill="none"><path d="M120 0H0v100h120V0z" fill="#fff"/><path d="M105 49.99C105 74.85 84.84 95 59.99 95c-9.72 0-18.7-3.08-26.05-8.31-2.13-1.52-4.11-3.21-5.94-5.06-8.03-8.13-13-19.31-13-31.64C15 25.15 35.13 5 59.99 5 84.85 5 105 25.13 105 49.99z" fill="#F0F1F2"/><mask id="a" maskUnits="userSpaceOnUse" x="15" y="5" width="90" height="90"><path d="M60 95c24.853 0 45-20.147 45-45S84.853 5 60 5 15 25.147 15 50s20.147 45 45 45z" fill="#F0F1F2"/></mask><g mask="url(#a)"><path d="M61.8 57.49h42.93V97.5H61.8V57.49z" fill="#D9942D"/><path d="M45 57.49h42.932V97.5H45V57.49z" fill="#E9AF58"/><path d="M60.99 57.49h10.773v6.742H60.99v-6.74zM94.154 57.49h6.844v6.96h-6.844v-6.96z" fill="#C6965F"/></g><path d="M63.448 7S59.068 9.5 49.5 9.5C39.932 9.5 35.552 7 35.552 7L5 18.25l3.985 17.5L25.025 32v40h48.95V32l16.04 3.75L94 18.25 63.448 7z" fill="#5BA7B1"/><path d="M63.358 7c0 5.547-6.166 9.985-13.873 9.985-7.488 0-13.654-4.438-13.654-9.985 0 0 4.295 1.362 13.765 1.362S63.358 7 63.358 7z" fill="#3C8B96"/><ellipse cx="46.486" cy="41.361" rx="8.841" ry="8.908" fill="#fff"/><path d="M54.647 26.97l8.834 15.418H45.813l8.835-15.418z" fill="#E9AF58"/></svg>